<svg width="31" height="31" viewBox="0 0 31 31" fill="none" xmlns="http://www.w3.org/2000/svg">
<path fill-rule="evenodd" clip-rule="evenodd" d="M21.4351 0.855227C22.4079 0.855227 23.3792 0.992435 24.3026 1.30231C29.9929 3.15231 32.0433 9.39606 30.3305 14.8536C29.3593 17.6424 27.7714 20.1877 25.6917 22.2674C22.7147 25.1504 19.4479 27.7095 15.9314 29.9141L15.5459 30.1469L15.1451 29.8987C11.6162 27.7095 8.33095 25.1504 5.32624 22.252C3.26041 20.1723 1.67095 17.6424 0.684283 14.8536C-1.0578 9.39606 0.992617 3.15231 6.74457 1.26993C7.19166 1.11577 7.65262 1.00785 8.11512 0.947727H8.30012C8.73332 0.884518 9.16345 0.855227 9.59512 0.855227H9.7647C10.7359 0.884518 11.6764 1.0541 12.5875 1.36398H12.6784C12.7401 1.39327 12.7864 1.42564 12.8172 1.45493C13.1579 1.56439 13.4801 1.68773 13.7884 1.85731L14.3743 2.11939C14.5158 2.19489 14.6747 2.31025 14.8121 2.40995C14.8991 2.47312 14.9774 2.53 15.0372 2.56648C15.0624 2.58132 15.0879 2.59624 15.1137 2.61129C15.2459 2.68846 15.3836 2.76884 15.4997 2.85785C17.2125 1.54898 19.2922 0.83981 21.4351 0.855227ZM25.5359 11.9552C26.168 11.9383 26.7076 11.4311 26.7539 10.782V10.5986C26.8001 8.43868 25.4912 6.48231 23.5009 5.72689C22.8689 5.50952 22.1751 5.85023 21.9439 6.49773C21.728 7.14523 22.0672 7.85439 22.7147 8.0841C23.7029 8.4541 24.3643 9.42689 24.3643 10.5045V10.5523C24.335 10.9054 24.4414 11.2461 24.6572 11.5081C24.873 11.7702 25.1968 11.9229 25.5359 11.9552Z" fill="#A6A6A6"/>
</svg>
