<svg width="37" height="37" viewBox="0 0 37 37" fill="none" xmlns="http://www.w3.org/2000/svg">
<path fill-rule="evenodd" clip-rule="evenodd" d="M24.4351 3.85523C25.4079 3.85523 26.3792 3.99243 27.3026 4.30231C32.9929 6.15231 35.0433 12.3961 33.3305 17.8536C32.3593 20.6424 30.7714 23.1877 28.6917 25.2674C25.7147 28.1504 22.4479 30.7095 18.9314 32.9141L18.5459 33.1469L18.1451 32.8987C14.6162 30.7095 11.3309 28.1504 8.32624 25.252C6.26041 23.1723 4.67095 20.6424 3.68428 17.8536C1.9422 12.3961 3.99262 6.15231 9.74458 4.26993C10.1917 4.11577 10.6526 4.00785 11.1151 3.94773H11.3001C11.7333 3.88452 12.1635 3.85523 12.5951 3.85523H12.7647C13.7359 3.88452 14.6764 4.0541 15.5875 4.36398H15.6784C15.7401 4.39327 15.7864 4.42564 15.8172 4.45493C16.1579 4.56439 16.4801 4.68773 16.7884 4.85731L17.3743 5.11939C17.5158 5.19489 17.6747 5.31025 17.8121 5.40995C17.8991 5.47312 17.9774 5.53 18.0372 5.56648C18.0624 5.58132 18.0879 5.59624 18.1137 5.61129C18.2459 5.68846 18.3836 5.76884 18.4997 5.85785C20.2125 4.54898 22.2922 3.83981 24.4351 3.85523ZM28.5359 14.9552C29.168 14.9383 29.7076 14.4311 29.7539 13.782V13.5986C29.8001 11.4387 28.4912 9.48231 26.5009 8.72689C25.8689 8.50952 25.1751 8.85023 24.9439 9.49773C24.728 10.1452 25.0672 10.8544 25.7147 11.0841C26.7029 11.4541 27.3643 12.4269 27.3643 13.5045V13.5523C27.335 13.9054 27.4414 14.2461 27.6572 14.5081C27.873 14.7702 28.1968 14.9229 28.5359 14.9552Z" fill="#A6A6A6"/>
</svg>
