<svg width="31" height="32" viewBox="0 0 31 32" fill="none" xmlns="http://www.w3.org/2000/svg">
<path d="M11.0828 29.2186V24.5198C11.0828 23.3203 12.0655 22.3479 13.2776 22.3479H17.7086C18.2907 22.3479 18.849 22.5767 19.2606 22.984C19.6722 23.3913 19.9034 23.9438 19.9034 24.5198V29.2186C19.8998 29.7173 20.0974 30.1967 20.4524 30.5507C20.8075 30.9046 21.2906 31.1036 21.7946 31.1036H24.8176C26.2295 31.1072 27.5848 30.5547 28.5844 29.5681C29.5841 28.5815 30.1459 27.2418 30.1459 25.8447V12.4585C30.1458 11.33 29.6403 10.2595 28.7655 9.53544L18.4816 1.40812C16.6927 -0.0168795 14.1297 0.0291301 12.3942 1.51739L2.345 9.53544C1.42883 10.2381 0.881247 11.3118 0.854187 12.4585V25.8311C0.854187 28.743 3.23973 31.1036 6.18245 31.1036H9.13647C10.1832 31.1036 11.0338 30.268 11.0414 29.2322L11.0828 29.2186Z" fill="#A6A6A6"/>
</svg>
