<svg width="31" height="31" viewBox="0 0 31 31" fill="none" xmlns="http://www.w3.org/2000/svg">
<path d="M11.0828 29.0255V24.3115C11.0828 23.1081 12.0655 22.1326 13.2776 22.1326H17.7086C18.2907 22.1326 18.849 22.3622 19.2606 22.7708C19.6722 23.1794 19.9034 23.7336 19.9034 24.3115V29.0255C19.8998 29.5258 20.0974 30.0068 20.4524 30.3619C20.8075 30.7169 21.2906 30.9166 21.7946 30.9166H24.8176C26.2295 30.9202 27.5848 30.366 28.5844 29.3762C29.5841 28.3864 30.1459 27.0423 30.1459 25.6407V12.2113C30.1458 11.0791 29.6403 10.0052 28.7655 9.27878L18.4816 1.12522C16.6927 -0.304382 14.1297 -0.258224 12.3942 1.23484L2.345 9.27878C1.42883 9.98376 0.881247 11.0609 0.854187 12.2113V25.627C0.854187 28.5484 3.23973 30.9166 6.18245 30.9166H9.13647C10.1832 30.9166 11.0338 30.0782 11.0414 29.0392L11.0828 29.0255Z" fill="#7167EE"/>
</svg>
