<svg width="31" height="32" viewBox="0 0 31 32" fill="none" xmlns="http://www.w3.org/2000/svg">
<path fill-rule="evenodd" clip-rule="evenodd" d="M28.4535 18.1648C29.0049 18.4568 29.4303 18.9178 29.7296 19.3788C30.3126 20.3315 30.2653 21.4994 29.6981 22.529L28.5953 24.3731C28.0123 25.3566 26.9252 25.9712 25.8066 25.9712C25.2552 25.9712 24.6407 25.8176 24.1365 25.5102C23.7269 25.249 23.2542 25.1568 22.7501 25.1568C21.1903 25.1568 19.8826 26.4323 19.8354 27.9536C19.8354 29.7208 18.3859 31.1038 16.5741 31.1038H14.4313C12.6037 31.1038 11.1543 29.7208 11.1543 27.9536C11.1228 26.4323 9.81508 25.1568 8.25532 25.1568C7.7354 25.1568 7.26274 25.249 6.86886 25.5102C6.3647 25.8176 5.73449 25.9712 5.19881 25.9712C4.06444 25.9712 2.97733 25.3566 2.39439 24.3731L1.30728 22.529C0.724343 21.5302 0.692833 20.3315 1.27577 19.3788C1.52786 18.9178 2.00051 18.4568 2.53619 18.1648C2.97733 17.9496 3.26093 17.5962 3.52876 17.1813C4.31652 15.8597 3.84387 14.1233 2.50468 13.3395C0.944915 12.4636 0.44075 10.512 1.33879 8.99066L2.39439 7.17735C3.30819 5.65601 5.26183 5.11817 6.83735 6.00946C8.20805 6.74707 9.98839 6.25533 10.7919 4.94913C11.044 4.51885 11.1858 4.05784 11.1543 3.59683C11.1228 2.99752 11.2961 2.42893 11.5954 1.96792C12.1784 1.01517 13.234 0.400485 14.3841 0.369751H16.6056C17.7714 0.369751 18.827 1.01517 19.41 1.96792C19.6936 2.42893 19.8826 2.99752 19.8354 3.59683C19.8039 4.05784 19.9457 4.51885 20.1977 4.94913C21.0013 6.25533 22.7816 6.74707 24.168 6.00946C25.7278 5.11817 27.6972 5.65601 28.5953 7.17735L29.6508 8.99066C30.5646 10.512 30.0605 12.4636 28.485 13.3395C27.1458 14.1233 26.6731 15.8597 27.4766 17.1813C27.7287 17.5962 28.0123 17.9496 28.4535 18.1648ZM11.044 15.7522C11.044 18.1648 13.0449 20.0857 15.5185 20.0857C17.992 20.0857 19.9457 18.1648 19.9457 15.7522C19.9457 13.3395 17.992 11.4033 15.5185 11.4033C13.0449 11.4033 11.044 13.3395 11.044 15.7522Z" fill="#A6A6A6"/>
</svg>
