<svg width="31" height="31" viewBox="0 0 31 31" fill="none" xmlns="http://www.w3.org/2000/svg">
<path fill-rule="evenodd" clip-rule="evenodd" d="M28.4535 17.936C29.0049 18.2289 29.4303 18.6914 29.7296 19.1539C30.3126 20.1097 30.2653 21.2814 29.6981 22.3143L28.5952 24.1643C28.0123 25.151 26.9252 25.7677 25.8066 25.7677C25.2552 25.7677 24.6407 25.6135 24.1365 25.3052C23.7269 25.0431 23.2542 24.9506 22.7501 24.9506C21.1903 24.9506 19.8826 26.2302 19.8354 27.7564C19.8354 29.5293 18.3859 30.9168 16.574 30.9168H14.4313C12.6037 30.9168 11.1543 29.5293 11.1543 27.7564C11.1228 26.2302 9.81508 24.9506 8.25532 24.9506C7.7354 24.9506 7.26274 25.0431 6.86886 25.3052C6.3647 25.6135 5.73449 25.7677 5.19881 25.7677C4.06444 25.7677 2.97733 25.151 2.39439 24.1643L1.30728 22.3143C0.724343 21.3122 0.692833 20.1097 1.27577 19.1539C1.52786 18.6914 2.00051 18.2289 2.53619 17.936C2.97733 17.7202 3.26093 17.3656 3.52876 16.9493C4.31652 15.6235 3.84387 13.8814 2.50468 13.0952C0.944915 12.2164 0.44075 10.2585 1.33879 8.73225L2.39439 6.91308C3.30819 5.38683 5.26183 4.84725 6.83735 5.74141C8.20805 6.48141 9.98839 5.98808 10.7919 4.67766C11.044 4.246 11.1858 3.7835 11.1543 3.321C11.1228 2.71975 11.2961 2.14933 11.5954 1.68683C12.1784 0.730996 13.234 0.114329 14.3841 0.0834961H16.6056C17.7714 0.0834961 18.827 0.730996 19.41 1.68683C19.6936 2.14933 19.8826 2.71975 19.8354 3.321C19.8039 3.7835 19.9457 4.246 20.1977 4.67766C21.0013 5.98808 22.7816 6.48141 24.168 5.74141C25.7278 4.84725 27.6972 5.38683 28.5952 6.91308L29.6508 8.73225C30.5646 10.2585 30.0605 12.2164 28.485 13.0952C27.1458 13.8814 26.6731 15.6235 27.4766 16.9493C27.7287 17.3656 28.0123 17.7202 28.4535 17.936ZM11.044 15.5156C11.044 17.936 13.0449 19.8631 15.5185 19.8631C17.992 19.8631 19.9457 17.936 19.9457 15.5156C19.9457 13.0952 17.992 11.1527 15.5185 11.1527C13.0449 11.1527 11.044 13.0952 11.044 15.5156Z" fill="#7167EE"/>
</svg>
