<svg width="31" height="29" viewBox="0 0 31 29" fill="none" xmlns="http://www.w3.org/2000/svg">
<path fill-rule="evenodd" clip-rule="evenodd" d="M24.3937 8.92194H30.9167C30.9167 3.68458 27.7786 0.625 22.4615 0.625H8.53856C3.22152 0.625 0.083374 3.68458 0.083374 8.85514V20.1449C0.083374 25.3154 3.22152 28.375 8.53856 28.375H22.4615C27.7786 28.375 30.9167 25.3154 30.9167 20.1449V19.6639H24.3937C21.3664 19.6639 18.9123 17.2712 18.9123 14.3196C18.9123 11.3681 21.3664 8.97539 24.3937 8.97539V8.92194ZM24.3937 11.22H29.7656C30.4013 11.22 30.9167 11.7224 30.9167 12.3423V16.2436C30.9093 16.8604 30.3982 17.3586 29.7656 17.3659H24.5171C22.9845 17.386 21.6443 16.3629 21.2967 14.9075C21.1226 14.004 21.367 13.0717 21.9644 12.3605C22.5617 11.6493 23.4509 11.2318 24.3937 11.22ZM24.6267 15.3217H25.1337C25.7846 15.3217 26.3123 14.8072 26.3123 14.1727C26.3123 13.5381 25.7846 13.0237 25.1337 13.0237H24.6267C24.3154 13.0201 24.0156 13.1382 23.7942 13.3515C23.5728 13.5649 23.4482 13.8558 23.4482 14.1593C23.4481 14.7961 23.9736 15.3144 24.6267 15.3217ZM7.38745 8.92194H16.0893C16.7402 8.92194 17.2678 8.40751 17.2678 7.77293C17.2678 7.13835 16.7402 6.62392 16.0893 6.62392H7.38745C6.74188 6.62387 6.21644 7.13021 6.20893 7.75957C6.20889 8.39635 6.73436 8.91462 7.38745 8.92194Z" fill="#7167EE"/>
</svg>
