<svg width="37" height="37" viewBox="0 0 37 37" fill="none" xmlns="http://www.w3.org/2000/svg">
<path fill-rule="evenodd" clip-rule="evenodd" d="M27.3936 12.9219H33.9166C33.9166 7.68458 30.7784 4.625 25.4614 4.625H11.5384C6.2214 4.625 3.08325 7.68458 3.08325 12.8551V24.1449C3.08325 29.3154 6.2214 32.375 11.5384 32.375H25.4614C30.7784 32.375 33.9166 29.3154 33.9166 24.1449V23.6639H27.3936C24.3663 23.6639 21.9121 21.2712 21.9121 18.3196C21.9121 15.3681 24.3663 12.9754 27.3936 12.9754V12.9219ZM27.3936 15.22H32.7655C33.4012 15.22 33.9166 15.7224 33.9166 16.3423V20.2436C33.9092 20.8604 33.3981 21.3586 32.7655 21.3659H27.517C25.9844 21.386 24.6442 20.3629 24.2966 18.9075C24.1225 18.004 24.3669 17.0717 24.9642 16.3605C25.5616 15.6493 26.4508 15.2318 27.3936 15.22ZM27.6266 19.3217H28.1336C28.7845 19.3217 29.3121 18.8072 29.3121 18.1727C29.3121 17.5381 28.7845 17.0237 28.1336 17.0237H27.6266C27.3153 17.0201 27.0155 17.1382 26.7941 17.3515C26.5726 17.5649 26.448 17.8558 26.4481 18.1593C26.448 18.7961 26.9735 19.3144 27.6266 19.3217ZM10.3873 12.9219H19.0892C19.7401 12.9219 20.2677 12.4075 20.2677 11.7729C20.2677 11.1383 19.7401 10.6239 19.0892 10.6239H10.3873C9.74176 10.6239 9.21631 11.1302 9.20881 11.7596C9.20876 12.3963 9.73424 12.9146 10.3873 12.9219Z" fill="#A6A6A6"/>
</svg>
