<svg class="svg-icon" style="width: 1em;height: 1em;vertical-align: middle;fill: currentColor;overflow: hidden;" viewBox="0 0 1024 1024" version="1.1" xmlns="http://www.w3.org/2000/svg"><path d="M512 0l6.902519 0.056889C746.116741 3.735704 929.185185 189.060741 929.185185 417.185185c0 89.524148-9.481481 151.703704-66.37037 246.518519s-189.62963 246.518519-303.407408 341.333333c-19.380148 16.156444-37.925926 18.962963-47.407407 18.962963s-28.027259-2.806519-47.407407-18.962963c-113.777778-94.814815-246.518519-246.518519-303.407408-341.333333S94.814815 506.709333 94.814815 417.185185C94.814815 186.785185 281.6 0 512 0z m0 75.851852C323.489185 75.851852 170.666667 228.67437 170.666667 417.185185c0 186.405926 149.428148 337.92 335.075555 341.276445L512 758.518519c188.510815 0 341.333333-152.822519 341.333333-341.333334S700.510815 75.851852 512 75.851852z m-94.814815 132.740741h132.626963v75.851851H455.111111v151.703704h94.701037v75.851852H455.111111v113.682963A37.888 37.888 0 0 1 417.185185 663.703704c-20.954074 0-37.925926-17.009778-37.925926-38.020741v-379.06963c0-10.543407 4.228741-20.024889 11.093334-26.870518A37.546667 37.546667 0 0 1 417.185185 208.592593z m132.740741 0a151.703704 151.703704 0 1 1 0 303.407407v-75.851852a75.851852 75.851852 0 1 0 0-151.703704v-75.851851z" fill="#F44B34" /></svg>